<svg xmlns="http://www.w3.org/2000/svg" enable-background="new 0 0 47.5 47.5" viewBox="0 0 47.5 47.5" id="Y"><defs><clipPath id="a"><path d="M0 38h38V0H0v38Z" fill="#d8a353" class="color000000 svgShape"></path></clipPath></defs><g clip-path="url(#a)" transform="matrix(1.25 0 0 -1.25 0 47.5)" fill="#d8a353" class="color000000 svgShape"><path fill="#5fe4d4" d="M0 0a4 4 0 0 0-4-4h-28a4 4 0 0 0-4 4v28a4 4 0 0 0 4 4h28a4 4 0 0 0 4-4V0Z" transform="translate(37 5)" class="color3b88c3 svgShape"></path><path fill="#8526fe" d="M0 0c0 1.24-.93 2.263-2.232 2.263-.807 0-1.52-.341-1.922-.93l-4.466-6.48-4.464 6.48c-.404.589-1.117.93-1.923.93-1.302 0-2.232-1.023-2.232-2.263 0-.496.155-.992.434-1.396l5.184-7.295v-8.417a2.89 2.89 0 0 1 2.891-2.891h.218a2.89 2.89 0 0 1 2.891 2.891v8.413l5.187 7.299C-.154-.992 0-.496 0 0" transform="translate(27.621 27.999)" class="colorffffff svgShape"></path></g></svg>